<svg xmlns="http://www.w3.org/2000/svg" viewBox="0 0 910.14 325.15"><g id="Layer_2" data-name="Layer 2"><g id="Layer_1-2" data-name="Layer 1"><path d="M289,107.68a7.33,7.33,0,0,0-7.17-5.45,7.25,7.25,0,0,0-7.07,5.57,7.11,7.11,0,0,0,4.53,8.44A2.11,2.11,0,0,1,281,118.6c-.08,6.82-.08,13.66,0,20.48,0,1.48-.27,2.09-1.94,2.08-13.15-.07-26.29,0-39.44,0a2.66,2.66,0,0,1-2.3-.77c-1.64-1.83-3.41-3.55-5.14-5.33a20,20,0,0,0-15.68-6.56,4.38,4.38,0,0,1-4.07-1.8,67.24,67.24,0,0,0-16-14.7,29.72,29.72,0,0,0-7.27-4.14,2.64,2.64,0,0,1-1.93-2.83q.12-16.78,0-33.56c0-1.55.41-2.07,2-2,4.78.1,9.56.09,14.34,0a2.52,2.52,0,0,1,2.85,1.78A6.56,6.56,0,0,0,214.19,75a7.13,7.13,0,0,0,5.1-6.63,7,7,0,0,0-5.17-6.57,6.52,6.52,0,0,0-7.76,3.89c-.65,1.56-1.52,1.73-2.89,1.71-5.21,0-10.43.08-15.63-.06-2.1,0-2.79.57-2.78,2.74.1,11,.05,22,0,33v3A39.46,39.46,0,0,0,168,104.32c-2,.22-2.39-.5-2.36-2.35.09-5.37,0-10.75,0-16.12,0-4.78.09-9.56.06-14.34a2.36,2.36,0,0,1,1.63-2.68,6.66,6.66,0,0,0,4-8,6.85,6.85,0,0,0-13.19,0,6.66,6.66,0,0,0,4,8,2.35,2.35,0,0,1,1.63,2.68c0,4.95,0,9.9.07,14.85,0,5.45-.11,10.91-.06,16.36,0,1.59-.34,2.29-2.08,2.75a49.52,49.52,0,0,0-16.9,8.13,2.84,2.84,0,0,1-1-1.73c-.11-8-.11-16-.15-24q0-13.87.09-27.75c0-6.43,0-6.43-6.65-6-5.12,0-10.24-.11-15.37-.07a2.39,2.39,0,0,1-2.66-1.7c-1.83-4.34-6.26-4.73-9.44-3.29a6.61,6.61,0,0,0-3.56,6.8,7.13,7.13,0,0,0,5.67,5.87,6.88,6.88,0,0,0,7.09-3.54c.54-1,.67-2.16,2.37-2.13,6.83.14,13.66.1,20.49.13q0,16.11.09,32.23v24.94c-6.63-2.79-13.61-3.43-20.08-1.27l-.41.14-.34.13a36.1,36.1,0,0,0-19,15.79c-2.07,3.48-4.4,5.38-8.07,6.23-3.13.71-5.76,3-9.14,2.9-7.86-.05-15.7-.12-23.55-.09-1.54,0-2.07-.38-2-2,.09-5.47.08-10.93,0-16.39a2.26,2.26,0,0,1,1.7-2.57A7,7,0,0,0,65.15,108,7.41,7.41,0,0,0,58,102.2a7.24,7.24,0,0,0-7.11,5.51c-.81,3.73.79,7.13,4.41,8.48,1.59.59,1.77,1.41,1.76,2.8q-.08,9,0,17.92c0,.82-.5,2,1,2.17H82.59a7.29,7.29,0,0,1-.86,1C75,144.72,70.61,150.63,71.3,159.28c.1,1.26-.53,1.39-1.51,1.38-3,0-6-.06-9,0a2.11,2.11,0,0,1-2.4-1.62,7.26,7.26,0,0,0-8.51-4.48,7.72,7.72,0,0,0-5.65,7.13,7.52,7.52,0,0,0,5.86,7.15,7.1,7.1,0,0,0,8.29-4.39c.49-1.24,1-1.74,2.35-1.71q4.74.12,9.48,0a2.07,2.07,0,0,1,2.07,1.09,11.94,11.94,0,0,0,2.16,5.68c2.55,3.58,3.46,7.13.92,11.08a5.43,5.43,0,0,0-.62,2.2c-.19,1.58-1,2-2.53,2-9.14-.08-18.27,0-27.4-.07-2,0-2.71.56-2.67,2.62.11,7.25,0,14.52,0,21.77,0,1.13,0,1.93-1.46,2.47a7.15,7.15,0,0,0-4.69,8.37,7.62,7.62,0,0,0,7.23,5.79,7.66,7.66,0,0,0,7-5.39,7.23,7.23,0,0,0-4.46-8.73,2.17,2.17,0,0,1-1.61-2.43c0-6.74.07-13.49,0-20.23,0-1.74.57-2.14,2.21-2.13,8.45.08,16.9.1,25.35,0,1.88,0,2.25.66,2.24,2.36a22.91,22.91,0,0,0,1.32,8.37l.16.41,1.19,3.18A44.47,44.47,0,0,0,85,214.23c5.18,6,10.86,11.49,18.08,15.09,11.51,6.74,23.07,6.37,34.83-.1,0,9.53,0,18.73,0,27.93,0,1.51-1,1.31-1.88,1.31-5,0-9.91,0-14.86,0-1.32,0-1.85-.45-2.34-1.71a6.61,6.61,0,0,0-7.76-3.89,6.52,6.52,0,0,0-5.09,6.24,6.63,6.63,0,0,0,5.21,6.94,6.43,6.43,0,0,0,7.42-3.63c.71-1.68,1.64-2,3.27-2,5.12.09,10.24,0,15.36.08,2.11,0,2.79-.59,2.76-2.74-.11-9.3,0-18.62-.08-27.92,0-1.52.68-2.35,1.63-3.43,3.14-3.58,7-4.31,11.47-3.83a18.68,18.68,0,0,0,4.84-.14c1.42-.23,1.58.32,1.57,1.46,0,3.5,0,7,.08,10.5,0,7.08-.12,14.17,0,21.26,0,1.8-.32,2.84-2.15,3.64a6.4,6.4,0,0,0-3.39,7.53,6.73,6.73,0,0,0,6.85,5,6.84,6.84,0,0,0,6.32-5c.68-3.24-.66-6.47-3.67-7.64-1.79-.69-1.93-1.7-1.92-3.26,0-7.34,0-14.68-.08-22,0-2.29.09-4.57.09-6.85,0-4.24,0-4.37,3.69-5.31l.36-.09c.55,0,1.09,0,1.63-.08l.93-.07a72,72,0,0,0,10.28-1.79c3.12-.75,3.12-.75,3.13,2.38q0,18.44.11,36.85c0,4.18,0,8.36-.15,12.54-.07,2,.68,2.45,2.54,2.42,6.49-.1,13,0,19.46-.07a2.54,2.54,0,0,1,2.84,1.8,6.51,6.51,0,0,0,7.79,3.81,7.14,7.14,0,0,0,5.11-6.62,7.05,7.05,0,0,0-5.2-6.54,6.58,6.58,0,0,0-7.76,3.89,2.3,2.3,0,0,1-2.64,1.66c-5.89-.05-11.78-.09-17.67,0-1.86,0-2.5-.36-2.46-2.36.13-5.37,0-10.75,0-16.13,0-.93.09-1.87.09-2.8,0-10,0-20,0-29.94,0-1.62.39-2.43,2.06-2.88a35.92,35.92,0,0,0,7.73-3.26c6.22-3.35,11.13-7.85,12.87-15,.33-1.32,1.19-1.37,2.28-1.39a64.41,64.41,0,0,0,11.35-.95c.77-.14,1.53-.31,2.29-.52a44.53,44.53,0,0,0,15.32-4.88,6.42,6.42,0,0,1,3.1-1c8.5.06,17,.06,25.5.09,0,6.14,0,12.28.08,18.42a2.1,2.1,0,0,1-1.66,2.33,7.17,7.17,0,0,0-4.49,8.24,7.31,7.31,0,0,0,14.26.27,7,7,0,0,0-4.4-8.5,2.3,2.3,0,0,1-1.73-2.59c0-5.21,0-10.41-.08-15.61.3-4.78.3-4.77-4.51-4.77H242.25c6.34-5.72,8.28-12.48,7.46-20.17-.15-1.36.73-1.27,1.6-1.27,4.27,0,8.53.06,12.79,0a2.44,2.44,0,0,1,2.8,1.8,7.09,7.09,0,0,0,7.59,4.38,7.29,7.29,0,0,0,1.78-14c-3.09-1.26-7.21-.54-8.49,2.54-1.56,3.81-4.24,3.28-7.1,3.28-1.78,0-3.58.09-5.36,0-2.07-.13-4.21.53-6.23-.43-1.69-7.73-5.4-14.57-9.67-21.6h3.08c12.47,0,24.93-.06,37.39,0,2.5,0,3.2-.77,3.14-3.21-.15-7.08,0-14.17-.09-21.26a2.27,2.27,0,0,1,1.71-2.55A7.11,7.11,0,0,0,289,107.68Zm-43.25,55,.12.36.06.19.13.38v0l.87,4.5c.05.37.1.73.13,1.09.63,7.12-1.46,13.05-7.14,17.63-4.16,3.35-9,5-14.09,6.39-.53.14-1.09.23-1.64.33l-.14,0-.35.08-.1,0c-.24,0-3.92.78-4.17.82l-.24,0-.69.1a67.23,67.23,0,0,1-8.39.75c-1.57,0-2.26-.52-2.41-2.19-.29-3.22-.56-6.48-2-9.45-.77-1.62-.28-2.53,1.19-3.28a43.36,43.36,0,0,0,12.87-10.36,7.86,7.86,0,0,1,4.85-2.9,6.23,6.23,0,0,0,5.11-5.93,6.56,6.56,0,0,0-4.17-6.42,6.45,6.45,0,0,0-8.12,9c1,1.84.68,3-.62,4.51A50.67,50.67,0,0,1,206.47,177c-2.05,1.36-3.88,2.13-5.75-.19l-.06-.06-.18-.17h0c-2.61-2.39-6.87-3.82-10.18-4.61-9.45-2.23-18.86-1.33-28.24.64-1.16.18-1.89-.61-2.64-1.25-3.68-3.11-6.86-6.62-8.68-11.18-.64-2.91-1.33-5.8-.81-8.82.29-1.75.57-3,3-3.14,2.69-.12,4.77-2.82,5-5.42a6,6,0,0,0-10.5-4.38c-1.73,2-2.35,5.35-.58,7,2.42,2.32,1.45,4.48.77,6.94a49.92,49.92,0,0,1-7.75-5.06l0,0-3.08-2.8c-1.35-1.54-2-2.28-2.94-3.46-1.22-1.45-1.84-2.59,0-4.42,2.46-2.44,1.51-6.82-1.39-8.66a6,6,0,0,0-8.44,2c-1.75,3-.64,7.56,2.7,8.28s4.62,2.95,6.33,5.17a21.14,21.14,0,0,0,2.57,2.85h0l2.41,2.28.36.34.12.11a13,13,0,0,0,3.26,2.14c4,2.09,7.05,4.74,7.37,9.58,1.58,5.22,5.41,8.83,9.24,12.51-18.91,6.55-26.7,7.72-42.33,6.38a12.91,12.91,0,0,0-1.42-.54c-2.23-.57-3.79-1.2-3.33-4.3.5-3.34-2.85-5.85-6.43-5.49a5.81,5.81,0,0,0-5.09,6.49c.6,3.56,4,6.06,7.34,4.71,2.39-1,4.18-.4,6.22.34a24.46,24.46,0,0,0,2.71.7c.82.2,1.64.44,2.48.57,6.85,1.05,6.85,1,8.28,7.89.09.42.22.82.31,1.24,1.8,9-2.39,15.55-10.89,17.07-1,.18-1.76.31-2.46-1a5.61,5.61,0,0,0-7.16-2.75,5.95,5.95,0,0,0,.79,11.44,5.7,5.7,0,0,0,6.73-3.76,2.94,2.94,0,0,1,2.53-2c5.8-1.27,10.46-4,12.23-10.17.32-1.11,1.14-1.3,2.08-1.57a91.87,91.87,0,0,1,14.8-2.58,62.64,62.64,0,0,1,11.19.81,2.65,2.65,0,0,1,2.55,2.5,5.73,5.73,0,0,0,5.41,4.9,6.08,6.08,0,0,0,6.11-4.47,5.94,5.94,0,0,0-9.89-5.8c-1.12,1.27-2.13,1.25-3.52,1a43.67,43.67,0,0,0-11.35-.86,61.88,61.88,0,0,0-14.82,2.25c-1.39.39-2,.28-2-1.39a27.65,27.65,0,0,0-2.27-10.9c-.51-1.26-.27-1.64,1.08-1.68,11.83-.31,22.69-4.82,33.9-7.84,4.79-.62,9.52-1.58,14.38-1.74,7.84-.26,15.41,1.09,22,6h0a6,6,0,0,0,.51.62c9.38,10.86,6.44,25.74-6.28,32.38-6.92,3.61-14.31,5.46-21.94,6.66-.56.09-1.14.12-1.72.18h-.07l-1.35.27-2,.38c-9.16.62-18.33.56-27.5.57a.76.76,0,0,1-.21,0h0c-1.26.09-2.75.29-3.11-1.17a5.68,5.68,0,0,0-6.43-4.23,6.18,6.18,0,0,0-5.17,5.25,6,6,0,0,0,3.58,6.17,6.06,6.06,0,0,0,7.42-2.19c.49-.69,2.05-.83,3.09-.88h0c1.2.33,2.6.15,3.8.75-9.47,7.46-19.67,10.14-31.23,6-.74-.27-1.44-.61-2.16-.93h0L102.5,226c-9.59-6.32-17.42-14.27-22.84-24.48-.1-.2-.2-.4-.29-.61l-1.13-3.48-.24-.74a2,2,0,0,1-.09-.33c-.81-3.31-1.58-6.57-1.06-10.07a31.35,31.35,0,0,1,7.41-15.73c1.43-1.7,2.71-2.5,5-1.57,2.6,1.07,4.83,0,6.62-2a6,6,0,0,0,1.19-6.66,6.17,6.17,0,0,0-5.47-4c-4-.39-6.87,2.18-7,6.28-.05,1.33.29,2.71-.86,3.84a41.28,41.28,0,0,0-3.61,4c-.94,1.2-1.59.87-2.3-.27a29.19,29.19,0,0,1-2.47-5.32l-1-3.86c-.05-.24-.1-.47-.13-.71a16.35,16.35,0,0,1,4.93-14.43c4.9-4.84,11-7.32,17.34-9.52,1.42-.5,1.48.25,1.56,1.39a18.18,18.18,0,0,0,4.39,10.45,9.66,9.66,0,0,0,1,1.19l0,0c4.08,4.25,11,7.45,16.26,9.79a2.63,2.63,0,0,1,2,2.53,5.68,5.68,0,0,0,5.22,5.1A6,6,0,0,0,131,156a5.74,5.74,0,0,0-7.47.59c-1.25,1.33-2.23,1.09-3.55.5-5.23-2.34-10.3-6.57-14.5-10.53h0c-.32-.47-.74-.89-1.07-1.36a12.75,12.75,0,0,1-2.69-7.27c-.19-6.76,3.87-11.2,8.22-15.46,3.35-3.28,7.37-5.6,11.46-7.82h0c.11,0,.43-.14,1.25-.38a26.06,26.06,0,0,1,18.07,1.89l3.53,1.94h0a6,6,0,0,0,.5.38,37,37,0,0,1,7.12,6.21c.7.85,1.62,1.46,2.65.64,1.26-1,.42-2-.29-2.85a33.71,33.71,0,0,0-5.75-5.45c-1.35-1-1.66-1.71,0-2.76,14.31-8.88,28.88-10.13,43.85-1.73l3.69,2.32.07,0,.35.25a70.43,70.43,0,0,1,12.38,11.4c1.86,2.24,2,2.23-.55,3.4a34,34,0,0,0-13.24,11c-2.11,2.83-2.09,2.74-5.43,1.75-2.53-.75-4.8-2.14-7.32-2.9h0c-2.25-1.79-5.91-3.54-7.63-5.94-.72-1-1-1.63,0-2.77a5.67,5.67,0,0,0,.5-7.69,6.17,6.17,0,0,0-7.14-1.91,5.91,5.91,0,0,0-3.51,6.45,5.72,5.72,0,0,0,5.58,5,2.83,2.83,0,0,1,2.39,1.48c1.9,2.82,5.72,6.79,8.8,8.4l.11,0c.32.19.66.35,1,.51a30.94,30.94,0,0,0,6.42,2.53c2.13.52,2.44,1.49,1.75,3.47a14.16,14.16,0,0,1-2.5,4.37,6.6,6.6,0,0,0,1.4,9.68,6.76,6.76,0,0,0,9.22-2.08,6.27,6.27,0,0,0-2.6-9.12c-2.6-1.2-2.55-1.83-1.43-4.37,1.87-4.23,5-7.51,8.37-10.55,7.94-7.2,16.79-8.47,25.75-1.85l2.62,2.36h0a5.82,5.82,0,0,0,.46.53C238.54,145.29,242.7,153.67,245.79,162.66Z" fill="#c6529e"/><text transform="translate(333.95 201.15)" font-size="198.53" fill="#737475" font-family="HPSimplified-Regular, HP Simplified"><tspan letter-spacing="0em">S</tspan><tspan x="101.65" y="0" letter-spacing="-0.03em">A</tspan><tspan x="205.28" y="0">VIPS</tspan></text></g><g id="Layer_2-2" data-name="Layer 2"><circle cx="162.58" cy="162.58" r="153.58" fill="none" stroke="#d9d9d8" stroke-miterlimit="10" stroke-width="18"/><path d="M304.77,223.2H895a15.12,15.12,0,0,1,15.12,15.12v0a0,0,0,0,1,0,0H304.77a4.65,4.65,0,0,1-4.65-4.65v-5.82a4.65,4.65,0,0,1,4.65-4.65Z" fill="#d9d9d8"/></g></g></svg>